<svg width="80" height="33" viewBox="0 0 80 33" fill="none" xmlns="http://www.w3.org/2000/svg">
<rect width="80" height="33" rx="3" fill="#CF3030"/>
<path d="M16.457 22V12.0469H19.3965C20.276 12.0469 21.0553 12.2428 21.7344 12.6348C22.418 13.0267 22.9466 13.5827 23.3203 14.3027C23.694 15.0228 23.8809 15.8477 23.8809 16.7773V17.2764C23.8809 18.2197 23.6917 19.0492 23.3135 19.7646C22.9398 20.4801 22.4043 21.0316 21.707 21.4189C21.0143 21.8063 20.2191 22 19.3213 22H16.457ZM18.1865 13.4414V20.6191H19.3145C20.2214 20.6191 20.9163 20.3366 21.3994 19.7715C21.887 19.2018 22.1354 18.3861 22.1445 17.3242V16.7705C22.1445 15.6904 21.9098 14.8656 21.4404 14.2959C20.971 13.7262 20.2897 13.4414 19.3965 13.4414H18.1865ZM31.4209 17.5566H27.333V20.6191H32.1113V22H25.6035V12.0469H32.0635V13.4414H27.333V16.1895H31.4209V17.5566ZM35.249 20.6191H39.7676V22H33.5195V12.0469H35.249V20.6191ZM46.9111 17.5566H42.8232V20.6191H47.6016V22H41.0938V12.0469H47.5537V13.4414H42.8232V16.1895H46.9111V17.5566ZM56.3379 13.4414H53.2344V22H51.5186V13.4414H48.4424V12.0469H56.3379V13.4414ZM63.4678 17.5566H59.3799V20.6191H64.1582V22H57.6504V12.0469H64.1104V13.4414H59.3799V16.1895H63.4678V17.5566Z" fill="white"/>
</svg>
