<svg width="80" height="33" viewBox="0 0 80 33" fill="none" xmlns="http://www.w3.org/2000/svg">
<rect width="80" height="33" rx="3" fill="#1391FF"/>
<path d="M36.0977 20.708C35.7376 21.1774 35.2386 21.5329 34.6006 21.7744C33.9626 22.016 33.238 22.1367 32.4268 22.1367C31.5928 22.1367 30.8545 21.9476 30.2119 21.5693C29.5693 21.1911 29.0726 20.651 28.7217 19.9492C28.3753 19.2428 28.1953 18.4202 28.1816 17.4814V16.7021C28.1816 15.1982 28.5417 14.0247 29.2617 13.1816C29.9818 12.334 30.9867 11.9102 32.2764 11.9102C33.3838 11.9102 34.2633 12.1836 34.915 12.7305C35.5667 13.2773 35.9587 14.0658 36.0908 15.0957H34.3955C34.2041 13.8971 33.5091 13.2979 32.3105 13.2979C31.5358 13.2979 30.9456 13.5781 30.54 14.1387C30.139 14.6947 29.9316 15.5127 29.918 16.5928V17.3584C29.918 18.4339 30.1436 19.2702 30.5947 19.8672C31.0505 20.4596 31.6816 20.7559 32.4883 20.7559C33.3724 20.7559 34.0013 20.5553 34.375 20.1543V18.2061H32.3242V16.8936H36.0977V20.708ZM43.8154 17.5566H39.7275V20.6191H44.5059V22H37.998V12.0469H44.458V13.4414H39.7275V16.1895H43.8154V17.5566ZM53.2422 13.4414H50.1387V22H48.4229V13.4414H45.3467V12.0469H53.2422V13.4414Z" fill="white"/>
</svg>
