<svg width="20" height="20" viewBox="0 0 20 20" fill="none" xmlns="http://www.w3.org/2000/svg">
<path d="M10.0001 0C6.77503 0 4.15118 2.62375 4.15118 5.84887V9.18931C4.15118 9.22727 4.10434 9.29123 4.06754 9.30346C3.75125 9.40894 3.49438 9.50034 3.25924 9.59098C2.97883 9.69909 2.76733 10.0098 2.76733 10.3139V17.9893C2.76733 18.2912 2.97746 18.6022 3.2561 18.7126C5.41196 19.5669 7.68094 20 10 20C12.3191 20 14.5881 19.5668 16.744 18.7125C17.0226 18.6021 17.2326 18.2912 17.2326 17.9893V10.3139C17.2326 10.0098 17.0211 9.69909 16.7406 9.59088C16.5053 9.50023 16.2485 9.40884 15.9325 9.30336C15.8958 9.29113 15.8489 9.22713 15.8489 9.18917V5.84877C15.8488 2.62375 13.2251 0 10.0001 0ZM8.40696 12.6515C8.40696 11.7711 9.12021 11.0586 9.99995 11.0586C10.8796 11.0586 11.5929 11.771 11.5929 12.6515C11.5929 13.2349 11.2639 13.7234 10.7964 14.0003V16.6339C10.7964 17.0742 10.4402 17.4304 9.99991 17.4304C9.55963 17.4304 9.20344 17.0742 9.20344 16.6339V14.0003C8.736 13.7234 8.40696 13.2349 8.40696 12.6515ZM13.8378 5.84877V8.73096C12.5792 8.46015 11.2881 8.323 10.0006 8.32289C8.71362 8.32289 7.42274 8.46008 6.16227 8.73065V5.84877C6.16227 3.73261 7.88383 2.01109 9.99995 2.01109C12.116 2.01106 13.8378 3.73261 13.8378 5.84877Z" fill="#A4A4A4"/>
</svg>
