<svg width="80" height="33" viewBox="0 0 80 33" fill="none" xmlns="http://www.w3.org/2000/svg">
<rect width="80" height="33" rx="3" fill="#49CC90"/>
<path d="M24.9541 18.3018V22H23.2246V12.0469H27.0322C28.1442 12.0469 29.026 12.3363 29.6777 12.915C30.334 13.4938 30.6621 14.2594 30.6621 15.2119C30.6621 16.1872 30.3408 16.946 29.6982 17.4883C29.0602 18.0306 28.1647 18.3018 27.0117 18.3018H24.9541ZM24.9541 16.9141H27.0322C27.6475 16.9141 28.1169 16.7705 28.4404 16.4834C28.764 16.1917 28.9258 15.7725 28.9258 15.2256C28.9258 14.6878 28.7617 14.2594 28.4336 13.9404C28.1055 13.6169 27.6543 13.4505 27.0801 13.4414H24.9541V16.9141ZM40.123 17.2832C40.123 18.2585 39.9544 19.1152 39.6172 19.8535C39.2799 20.5872 38.7969 21.1523 38.168 21.5488C37.5436 21.9408 36.8236 22.1367 36.0078 22.1367C35.2012 22.1367 34.4811 21.9408 33.8477 21.5488C33.2188 21.1523 32.7311 20.5895 32.3848 19.8604C32.043 19.1312 31.8698 18.2904 31.8652 17.3379V16.7773C31.8652 15.8066 32.0361 14.9499 32.3779 14.207C32.7243 13.4642 33.2096 12.8968 33.834 12.5049C34.4629 12.1084 35.1829 11.9102 35.9941 11.9102C36.8053 11.9102 37.5231 12.1061 38.1475 12.498C38.7764 12.8854 39.2617 13.446 39.6035 14.1797C39.9453 14.9089 40.1185 15.7588 40.123 16.7295V17.2832ZM38.3936 16.7637C38.3936 15.6608 38.1839 14.8154 37.7646 14.2275C37.3499 13.6396 36.7598 13.3457 35.9941 13.3457C35.2467 13.3457 34.6611 13.6396 34.2373 14.2275C33.818 14.8109 33.6038 15.638 33.5947 16.709V17.2832C33.5947 18.377 33.8066 19.2223 34.2305 19.8193C34.6589 20.4163 35.2513 20.7148 36.0078 20.7148C36.7734 20.7148 37.3613 20.4232 37.7715 19.8398C38.1862 19.2565 38.3936 18.4043 38.3936 17.2832V16.7637ZM47.0479 19.4365C47.0479 18.999 46.8929 18.6618 46.583 18.4248C46.2777 18.1878 45.724 17.9486 44.9219 17.707C44.1198 17.4655 43.4818 17.1966 43.0078 16.9004C42.1009 16.3307 41.6475 15.5879 41.6475 14.6719C41.6475 13.8698 41.9733 13.209 42.625 12.6895C43.2812 12.1699 44.1312 11.9102 45.1748 11.9102C45.8675 11.9102 46.485 12.0378 47.0273 12.293C47.5697 12.5482 47.9958 12.9128 48.3057 13.3867C48.6156 13.8561 48.7705 14.3779 48.7705 14.9521H47.0479C47.0479 14.4326 46.8838 14.027 46.5557 13.7354C46.2321 13.4391 45.7673 13.291 45.1611 13.291C44.596 13.291 44.1562 13.4118 43.8418 13.6533C43.5319 13.8949 43.377 14.2321 43.377 14.665C43.377 15.0296 43.5456 15.335 43.8828 15.5811C44.2201 15.8226 44.776 16.0596 45.5508 16.292C46.3255 16.5199 46.9476 16.7819 47.417 17.0781C47.8864 17.3698 48.2305 17.707 48.4492 18.0898C48.668 18.4681 48.7773 18.9124 48.7773 19.4229C48.7773 20.2523 48.4583 20.9131 47.8203 21.4053C47.1868 21.8929 46.3255 22.1367 45.2363 22.1367C44.5163 22.1367 43.8532 22.0046 43.2471 21.7402C42.6455 21.4714 42.1761 21.1022 41.8389 20.6328C41.5062 20.1634 41.3398 19.6165 41.3398 18.9922H43.0693C43.0693 19.5573 43.2562 19.9948 43.6299 20.3047C44.0036 20.6146 44.5391 20.7695 45.2363 20.7695C45.8379 20.7695 46.2891 20.6488 46.5898 20.4072C46.8952 20.1611 47.0479 19.8376 47.0479 19.4365ZM57.4863 13.4414H54.3828V22H52.667V13.4414H49.5908V12.0469H57.4863V13.4414Z" fill="white"/>
</svg>
