<svg width="80" height="33" viewBox="0 0 80 33" fill="none" xmlns="http://www.w3.org/2000/svg">
<rect width="80" height="33" rx="3" fill="#E97500"/>
<path d="M29.9453 18.3018V22H28.2158V12.0469H32.0234C33.1354 12.0469 34.0173 12.3363 34.6689 12.915C35.3252 13.4938 35.6533 14.2594 35.6533 15.2119C35.6533 16.1872 35.332 16.946 34.6895 17.4883C34.0514 18.0306 33.1559 18.3018 32.0029 18.3018H29.9453ZM29.9453 16.9141H32.0234C32.6387 16.9141 33.1081 16.7705 33.4316 16.4834C33.7552 16.1917 33.917 15.7725 33.917 15.2256C33.917 14.6878 33.7529 14.2594 33.4248 13.9404C33.0967 13.6169 32.6455 13.4505 32.0713 13.4414H29.9453V16.9141ZM44.4512 12.0469V18.6982C44.4512 19.7555 44.1117 20.5941 43.4326 21.2139C42.7581 21.8291 41.8581 22.1367 40.7324 22.1367C39.5931 22.1367 38.6885 21.8337 38.0186 21.2275C37.3486 20.6169 37.0137 19.7715 37.0137 18.6914V12.0469H38.7363V18.7051C38.7363 19.3704 38.9049 19.8786 39.2422 20.2295C39.5794 20.5804 40.0762 20.7559 40.7324 20.7559C42.0632 20.7559 42.7285 20.054 42.7285 18.6504V12.0469H44.4512ZM53.4951 13.4414H50.3916V22H48.6758V13.4414H45.5996V12.0469H53.4951V13.4414Z" fill="white"/>
</svg>
