<svg width="80" height="33" viewBox="0 0 80 33" fill="none" xmlns="http://www.w3.org/2000/svg">
<rect width="80" height="33" rx="3" fill="#9249CC"/>
<path d="M38.9346 19.5391L40.4658 12.0469H42.1816L39.8848 22H38.2305L36.3369 14.7334L34.4023 22H32.7412L30.4443 12.0469H32.1602L33.7051 19.5254L35.6055 12.0469H37.0547L38.9346 19.5391ZM48.6484 19.4365C48.6484 18.999 48.4935 18.6618 48.1836 18.4248C47.8783 18.1878 47.3245 17.9486 46.5225 17.707C45.7204 17.4655 45.0824 17.1966 44.6084 16.9004C43.7015 16.3307 43.248 15.5879 43.248 14.6719C43.248 13.8698 43.5739 13.209 44.2256 12.6895C44.8818 12.1699 45.7318 11.9102 46.7754 11.9102C47.4681 11.9102 48.0856 12.0378 48.6279 12.293C49.1702 12.5482 49.5964 12.9128 49.9062 13.3867C50.2161 13.8561 50.3711 14.3779 50.3711 14.9521H48.6484C48.6484 14.4326 48.4844 14.027 48.1562 13.7354C47.8327 13.4391 47.3678 13.291 46.7617 13.291C46.1966 13.291 45.7568 13.4118 45.4424 13.6533C45.1325 13.8949 44.9775 14.2321 44.9775 14.665C44.9775 15.0296 45.1462 15.335 45.4834 15.5811C45.8206 15.8226 46.3766 16.0596 47.1514 16.292C47.9261 16.5199 48.5482 16.7819 49.0176 17.0781C49.487 17.3698 49.8311 17.707 50.0498 18.0898C50.2686 18.4681 50.3779 18.9124 50.3779 19.4229C50.3779 20.2523 50.0589 20.9131 49.4209 21.4053C48.7874 21.8929 47.9261 22.1367 46.8369 22.1367C46.1169 22.1367 45.4538 22.0046 44.8477 21.7402C44.2461 21.4714 43.7767 21.1022 43.4395 20.6328C43.1068 20.1634 42.9404 19.6165 42.9404 18.9922H44.6699C44.6699 19.5573 44.8568 19.9948 45.2305 20.3047C45.6042 20.6146 46.1396 20.7695 46.8369 20.7695C47.4385 20.7695 47.8896 20.6488 48.1904 20.4072C48.4958 20.1611 48.6484 19.8376 48.6484 19.4365Z" fill="white"/>
</svg>
